<svg viewBox="0 0 20 20" xmlns="http://www.w3.org/2000/svg"><g><path d="M2.284 2.498c-.239.266-.184.617-.184 1.002V4H2a.5.5 0 0 0-.492.41L1.5 4.5V17a1 1 0 0 0 .883.993L2.5 18h10a1 1 0 0 0 .97-.752l-.081-.062c.438.368.976.54 1.507.526a2.5 2.5 0 0 1-2.232 1.783l-.164.005h-10a2.5 2.5 0 0 1-2.495-2.336L0 17V4.5a2 2 0 0 1 1.85-1.995L2 2.5l.284-.002zm10.532 0L13 2.5a2 2 0 0 1 1.995 1.85L15 4.5v2.28a2.243 2.243 0 0 0-1.5.404V4.5a.5.5 0 0 0-.41-.492L13 4v-.5l-.007-.144c-.031-.329.032-.626-.177-.858z"/><path d="m6 .49-.144.006a1.75 1.75 0 0 0-1.41.94l-.029.058.083-.004c-.69 0-1.25.56-1.25 1.25v1c0 .69.56 1.25 1.25 1.25h6c.69 0 1.25-.56 1.25-1.25v-1l-.006-.128a1.25 1.25 0 0 0-1.116-1.116l-.046-.002-.027-.058A1.75 1.75 0 0 0 9 .49H6zm0 1.5h3a.25.25 0 0 1 .25.25l.007.102A.75.75 0 0 0 10 2.99h.25v.5h-5.5v-.5H5a.75.75 0 0 0 .743-.648l.007-.102A.25.25 0 0 1 6 1.99zM15.374 8.54a.75.75 0 0 1-.093 1.056l-2.33 1.954h6.127a.75.75 0 0 1 0 1.501h-5.949l2.19 1.837a.75.75 0 1 1-.966 1.15l-3.788-3.18a.747.747 0 0 1-.21-.285.75.75 0 0 1 .17-.945l3.792-3.182a.75.75 0 0 1 1.057.093z"/></g></svg>