<svg viewBox="0 0 19 19" xmlns="http://www.w3.org/2000/svg"><path d="M9.5 4.5c1.85 0 3.667.561 5.199 1.519C16.363 7.059 17.5 8.4 17.5 9.5s-1.137 2.441-2.801 3.481c-1.532.958-3.35 1.519-5.199 1.519-1.85 0-3.667-.561-5.199-1.519C2.637 11.941 1.5 10.6 1.5 9.5s1.137-2.441 2.801-3.481C5.833 5.06 7.651 4.5 9.5 4.5Zm0 1a4 4 0 1 1-.2.005l.2-.005c-1.655 0-3.29.505-4.669 1.367C3.431 7.742 2.5 8.84 2.5 9.5c0 .66.931 1.758 2.331 2.633C6.21 12.995 7.845 13.5 9.5 13.5c1.655 0 3.29-.505 4.669-1.367 1.4-.875 2.331-1.974 2.331-2.633 0-.66-.931-1.758-2.331-2.633C12.79 6.005 11.155 5.5 9.5 5.5ZM8 6.5a1.5 1.5 0 1 0 0 3 1.5 1.5 0 0 0 0-3Z"/></svg>