<svg viewBox="0 0 19 19" xmlns="http://www.w3.org/2000/svg"><path d="m3.144 15.748 2.002 1.402-1.976.516-.026-1.918ZM2.438 3.391l15.346 11.023-.875 1.218-5.202-3.736-2.877 4.286.006.005-3.055.797-2.646-1.852-.04-2.95-.006-.005.006-.008v-.025l.01.008L6.02 7.81l-4.457-3.2.876-1.22ZM7.25 8.695l-2.13 3.198 3.277 2.294 2.104-3.158-3.25-2.334ZM14.002 0l2.16 1.512-.856 1.222c.828.967 1.144 2.141.432 3.158l-2.416 3.599-1.214-.873 2.396-3.593.005.003c.317-.452-.16-1.332-1.064-1.966-.891-.624-1.865-.776-2.197-.349l-.006-.004-2.384 3.575-1.224-.879 2.376-3.539c.674-.932 1.706-1.155 3.096-.668l.046.018.85-1.216Z"/></svg>