<svg fill="none" xmlns="http://www.w3.org/2000/svg" viewBox="0 0 19 19">
  <path fill-rule="evenodd" clip-rule="evenodd" d="M6 1a1 1 0 0 1 1-1h5a1 1 0 0 1 1 1v5a1 1 0 0 1-1 1h-2v2h5a1 1 0 0 1 1 1v3h1a1 1 0 0 1 1 1v3a1 1 0 0 1-1 1h-3a1 1 0 0 1-1-1v-3a1 1 0 0 1 1-1h1v-2.5a.5.5 0 0 0-.5-.5H10v3h1a1 1 0 0 1 1 1v3a1 1 0 0 1-1 1H8a1 1 0 0 1-1-1v-3a1 1 0 0 1 1-1h1v-3H4.5a.5.5 0 0 0-.5.5V13h1a1 1 0 0 1 1 1v3a1 1 0 0 1-1 1H2a1 1 0 0 1-1-1v-3a1 1 0 0 1 1-1h1v-3a1 1 0 0 1 1-1h5V7H7a1 1 0 0 1-1-1V1Zm1.5 4.5v-4h4v4h-4Zm-5 11v-2h2v2h-2Zm6-2v2h2v-2h-2Zm6 2v-2h2v2h-2Z" fill="#000"/>
</svg>
