<svg viewBox="0 0 19 19" xmlns="http://www.w3.org/2000/svg"><path d="m12.936 0 5 4.5v14.003h-16V0h11Zm-9.5 1.5v3.25l-1.497 1-.003 7 1.5 1v3.254L18.121 17l-.001 1.504h-.184v-1.502l-1.5 1.426-.004-13.22-4.222-3.692L3.436 1.5Z"/><path d="M4.496 6.64a.75.75 0 0 1 .958 1.15l-.085.07-2.643 1.89 2.646 1.89c.302.216.4.62.232.951l-.058.095a.75.75 0 0 1-.951.232L4.5 12.86 1 10.36V9.14l3.496-2.5Zm4.194 6.22a.75.75 0 0 1-.958-1.149l.085-.07 2.643-1.89-2.646-1.89a.75.75 0 0 1-.232-.952l.058-.095a.75.75 0 0 1 .95-.232l.096.058 3.5 2.5v1.22l-3.496 2.5Z"/></svg>